<svg version="1.0" xmlns="http://www.w3.org/2000/svg" width="1422.667" height="1422.667" viewBox="0 0 1067 1067"><path d="M90.8 122.5c-.1.2-15.8.5-34.8.7l-34.5.4-4.5 2.9c-13.2 8.3-18 19.4-15.8 35.8.6 4.7 1.9 7.6 6.2 14 2.9 4.5 9.8 14.9 15.2 23.2 5.4 8.2 10.3 15.7 10.9 16.6 1.9 3 7.4 11.3 8.4 12.9.6.8 3.5 5.1 6.4 9.5 2.8 4.4 5.5 8.1 5.9 8.3.5.2.8.9.8 1.6 0 .7.9 2.2 2 3.4 1.2 1.2 1.8 2.2 1.5 2.2-.5 0 .4 1.2 3.2 4.5.7.7 1.3 1.6 1.3 1.8 0 .5 5.9 9.8 7.8 12.2.4.5 1.9 2.8 3.3 5 20.5 31.1 28.5 43.1 28.9 43.5.4.3 1 1.2 1.4 2 1.8 3.8 24.8 38.4 25.9 38.8.4.2.7.8.7 1.3 0 1.1 4.2 7.2 5.3 7.7.4.2.7.7.7 1.2 0 .4 10.3 16.4 23 35.4 12.6 19.1 23 35.1 23 35.6 0 .6.4 1 .8 1 .5 0 1.5 1.2 2.3 2.7.8 1.6 2.1 3.6 3 4.6.9.9 2.2 3 3 4.5.8 1.5 1.6 2.9 1.9 3.2.8.7 19.3 28.8 21.5 32.7 1.1 1.8 2.3 3.3 2.7 3.3.4 0 .8.6.8 1.4 0 .8.4 1.6.8 1.8.4.1 1.9 2.1 3.2 4.3 1.3 2.2 2.8 4.4 3.3 5 2 2.5 11.7 17.8 11.7 18.5 0 .5.3 1 .8 1.2.4.1 3.3 4.1 6.3 8.8 5.2 7.8 42.1 63.7 44.4 67.2 11.7 17.7 25.5 38.3 26.4 39.6.6.9 7.2 10.9 14.6 22.2 7.3 11.3 13.7 20.9 14.2 21.5.4.5 4.2 6.2 8.3 12.5 4.1 6.3 8 12.1 8.7 12.8.6.6 1.5 2.1 1.8 3.2.3 1.1 1.1 2 1.6 2s.9.4.9.8c0 .8 19.9 31.2 22.6 34.5.8.9 1.4 2.1 1.4 2.6s.6 1.6 1.3 2.3c.7.7 4.5 6.2 8.5 12.3 3.9 6 7.6 11.7 8.2 12.5 1 1.4 4.1 6.2 6.5 9.9 5.8 9 15.2 22.7 15.7 22.9.5.2.8.9.9 1.5 0 .7 1.6 3.2 3.4 5.7 1.9 2.5 4.2 6 5.1 7.7.9 1.8 2 3.3 2.5 3.3s.9.6.9 1.3c0 .8.9 2.2 2 3.2s2 2.2 2 2.6c0 .4 1.5 2.9 3.3 5.5 1.7 2.5 4 6 5 7.8 1.1 1.7 2.7 4 3.7 5.1.9 1.1 1.9 2.5 2.1 3 .2.6 4 6.4 8.4 12.9 4.4 6.4 8.5 12.6 9.1 13.7.6 1 1.8 2.7 2.7 3.7 1 1 1.7 2.4 1.7 3.1 0 .6.6 1.4 1.4 1.7.8.3 1.7 1.6 2 3 .4 1.3 1.1 2.4 1.6 2.4.6 0 1 .5 1 1.1 0 .6.6 1.7 1.3 2.4 2.5 2.9 3.7 4.4 3.7 4.9 0 .8 10.4 16.1 11.2 16.4.4.2.8.9.8 1.5.1 1.6 5.9 8 9.5 10.4 9.8 6.6 25.7 6.4 36.6-.4 2-1.3 5.8-5.4 8.5-9.4 2.7-3.9 5.5-7.7 6.2-8.4.6-.8 1.2-1.6 1.2-1.9 0-.8 8.4-13.1 9.3-13.4.4-.2.7-.8.7-1.3 0-.6.5-1.5 1-2.2.6-.7 7.6-11.1 15.7-23.2 8-12.1 15-22.2 15.5-22.3.4-.2.8-1 .8-1.7 0-.8.6-2 1.3-2.7.7-.7 2.7-3.6 4.5-6.3 4.4-6.8 5.3-8.1 8.5-12.6 1.5-2.1 2.7-4.3 2.7-4.9 0-.5.4-1 .8-1 .5 0 1.5-1.2 2.3-2.7.8-1.5 2-3.5 2.6-4.3.7-.8 4.6-6.7 8.7-13 4.2-6.3 8-12.2 8.6-13 .5-.8 2.8-4.1 5-7.3s4-6.2 4-6.7c0-.6.5-1 1-1 .6 0 1-.7 1-1.5s.5-1.5 1-1.5c.6 0 1-.4 1-.9s5.6-9.3 12.5-19.6 12.5-18.9 12.5-19.2c0-.4.7-1.3 1.5-2.2.9-.9 4.6-6.3 8.2-12.1 3.7-5.8 7-10.7 7.3-11 .4-.3 1.5-2 2.5-3.7 1.1-1.8 2.3-3.3 2.8-3.3.4 0 .6-.4.2-.9-.3-.5.1-1.5.8-2.3.7-.7 2.2-2.7 3.3-4.3 1-1.7 2.2-3.5 2.7-4 .4-.6 8.6-12.9 18.2-27.5s18-27.2 18.6-28.1c.6-.8 3.2-4.7 5.7-8.6 2.6-3.8 5.6-8.3 6.6-9.9 13.6-20.3 50.6-76.6 50.6-77 0-.3.8-1.4 1.8-2.5 1.1-1 2.5-3.2 3.3-4.7.8-1.4 1.9-3.4 2.6-4.2.6-.8 9.1-13.4 18.7-28 9.7-14.6 18-27.2 18.6-28 1.1-1.5 10.7-16 12.5-18.8.6-.9 5.2-7.9 10.3-15.5 5-7.7 9.2-14.1 9.2-14.4 0-.4 4.1-6.4 5-7.3 1.4-1.4 5-7 5-7.8 0-.5.9-1.7 2-2.7 1.1-1 2-2.1 2-2.5 0-.4 5.1-8.3 11.2-17.6 6.2-9.3 11.7-17.6 12.3-18.5.5-.9 2.9-4.4 5.3-7.8 2.3-3.5 4.2-6.6 4.2-7.1s.4-1 .8-1.2c.4-.2 2.1-2.4 3.7-5 1.7-2.5 5.6-8.5 8.8-13.2 3.1-4.8 5.7-8.9 5.7-9.2 0-.3 1.1-1.7 2.5-3.2 1.4-1.5 2.5-3.1 2.5-3.5 0-1.1 6.2-10.1 7.2-10.5.4-.2.8-.8.8-1.3s4.2-7.1 9.2-14.7c9.8-14.4 11-16.3 12.9-20 .7-1.2 1.6-2.2 2.1-2.2.4 0 .8-.7.8-1.5s.5-1.5 1-1.5c.6 0 1-.5 1-1.1 0-.7 1.6-3.4 3.5-6 1.9-2.7 3.5-5.1 3.5-5.4 0-.3.7-1.3 1.5-2.2.8-1 6.6-9.7 12.9-19.3 6.3-9.6 12-18.2 12.5-19 5.6-8.3 8.1-12.3 8.1-13 0-.5.3-1 .8-1.2.7-.3 6.6-8.6 7.3-10.3.2-.6 3.4-5.5 7-11.1 3.7-5.6 7-11.6 7.4-13.5.9-4.2.9-14.7 0-19.1-1-4.4-6.8-13-10.8-16.1-7.5-5.7-9-6-28.2-6.5-20.8-.5-935.2-1.2-935.7-.7zm364.5 66.8c7.1.3 13.1.8 13.4 1.1.7.7-2.8 7.6-3.9 7.6-.5 0-.8.4-.8.9 0 .8-7.5 12.9-9.7 15.6-2.3 2.9-10.3 15.6-10.3 16.4 0 .6-.8 1.5-1.7 2-1 .6-1.4 1.1-1 1.1.4 0 .3.6-.3 1.2-2.3 2.8-9 12.9-9 13.8 0 .4-.3 1-.7 1.2-1.1.4-7.3 9.7-7.3 10.7 0 .5-.3 1.1-.7 1.3-1 .4-5.3 6.5-5.3 7.3 0 .4-.6 1.2-1.2 2-1.1 1.2-19.6 28.8-22.3 33.3-.5.9-1.3 1.9-1.6 2.2-.3.3-.8.9-1 1.5-.9 2.2-61.2 92-62 92.3-.5.2-.7.8-.3 1.3.3.5 0 .9-.5.9-.6 0-1.1.4-1.1.8 0 .5-3.2 5.5-7.1 11.3-3.8 5.7-8.7 13-10.7 16.3-2 3.2-4.3 6.4-4.9 7.1-.7.8-1.3 1.8-1.3 2.3 0 .6-.3 1.2-.7 1.4-1 .4-11.3 15.8-11.3 16.8 0 .5-.4 1-.8 1.2-.5.1-2.3 2.4-4.1 5-3.5 5.3-4.6 5.8-5.6 2.8-.3-1.1-1-2-1.3-2-.4 0-1.6-1.6-2.6-3.5-1.1-1.9-2.3-3.5-2.8-3.5-.4 0-.8-.6-.8-1.4 0-.8-.6-2.1-1.3-2.8-2.1-2.1-105.7-157.7-105.7-158.7 0-.5-.3-1.1-.7-1.3-1.1-.5-7.3-9.7-7.3-10.8 0-.6-.4-1-.8-1-.5 0-1.5-1.2-2.3-2.8-.8-1.5-1.7-2.9-2-3.2-.6-.5-16-23.7-16.9-25.5-.3-.6-8.9-13.6-19.1-29C95 188 96.3 190.3 99.8 189.8c1.5-.2 13.1-.5 25.7-.7 12.7-.1 23.1-.3 23.2-.4.4-.4 295.2.2 306.6.6zm497.3 0c8.3.2 15.6.7 16.3 1.1.7.5-.6 3.3-3.9 8.1-2.8 4.1-5 7.8-4.9 8.1 0 .4-.3 1-.8 1.3-1.2.8-11.3 16.1-11.3 17.2 0 .4-.3.9-.7 1.1-.5.1-5.5 7.5-11.3 16.3-5.8 8.8-10.8 16.2-11.1 16.5-.3.3-.8.9-1 1.5-.5 1.3-40 60.8-40.8 61.5-.3.3-1.5 2.1-2.5 4-1.1 1.9-2.2 3.7-2.5 4-.4.3-3.7 5.2-7.5 11s-7.3 10.6-7.8 10.8c-.4.2-.8.8-.8 1.3 0 1.1-14.1 22.3-15.2 22.7-.4.2-.8.8-.8 1.3 0 1.1-26.1 40.3-27.2 40.7-.4.2-.8.8-.8 1.2 0 .8-27.7 42.2-32.4 48.5-2.5 3.3-2.9 3.2-5.2-1-1-1.9-2.2-3.5-2.6-3.5-.5 0-.8-.4-.8-1 0-1-5.5-9.2-8.2-12.4-1-1.1-1.8-2.5-1.8-3.2 0-.7-.3-1.4-.7-1.6-1.1-.4-7.3-9.7-7.3-10.7 0-.5-.4-1.1-.8-1.3-1-.4-7.2-9.6-7.2-10.8 0-.4-.3-1-.8-1.2-1.1-.4-9.2-12.6-9.2-13.7 0-.5-.3-1.1-.7-1.3-1.2-.5-5.3-6.6-5.3-7.8 0-.5-.4-1-.8-1-.5 0-1.5-1.2-2.3-2.7-.8-1.6-3.1-5-5.1-7.8-2.1-2.7-3.8-5.4-3.8-5.8 0-.4-.8-1.6-1.7-2.7-1-1-3.4-4.5-5.3-7.7s-4.3-6.7-5.2-7.7c-1-1.1-1.8-2.5-1.8-3.2 0-.7-.3-1.4-.7-1.6-1.1-.5-5.3-6.6-5.3-7.7 0-.5-.4-1.1-.9-1.3-.5-.2-1.7-1.7-2.7-3.4-1.1-1.7-3.8-5.9-6.1-9.2-2.4-3.4-4.3-6.5-4.3-7.1 0-.5-.3-1.1-.8-1.3-.4-.2-2.5-3-4.7-6.3-2.1-3.3-4.2-6.2-4.5-6.5-.4-.3-.9-1.2-1.3-2-.8-1.7-3-5.3-3.7-6-.5-.5-5.8-8.3-7.5-11.2-2.9-4.8-19.2-29.2-20.2-30.3-.7-.8-1.3-1.6-1.3-2 0-.5-3.9-6.4-5-7.5-.3-.3-1.1-1.7-1.9-3.2-.8-1.5-2.2-3.7-3.3-4.7-1-1.1-1.8-2.2-1.8-2.5 0-.2-5.8-9.1-12.8-19.8-7-10.6-15.1-22.9-18-27.3l-5.2-8 3.3-.5c1.7-.3 12-.7 22.7-.9 10.7-.1 19.6-.3 19.7-.4.3-.4 295.8.2 309.9.6zm-412.7 37c1.3 2.1 2.8 4.3 3.4 5 .7.6 1.8 2.4 2.6 3.9s2.2 3.7 3.3 4.7c1 1.1 1.8 2.4 1.8 2.9 0 .4.8 1.7 1.8 2.8 2.3 2.7 4.1 5.5 4.8 7.6.4 1 1 1.8 1.5 1.8.4 0 1.5 1.5 2.4 3.4.9 1.8 2.5 4.3 3.5 5.4 1.1 1.2 2 2.4 2 2.7 0 .3 1.6 2.8 3.5 5.5s3.5 5.4 3.5 6c0 .5.4 1 .8 1 .5 0 1.5 1.2 2.3 2.7.8 1.6 1.6 3 1.9 3.3.6.5 11.4 16.8 54.8 82.5 14.9 22.5 27.5 41.4 27.9 42 .5.5 2 2.8 3.3 5 1.3 2.2 2.7 4.2 3 4.5.3.3 2.5 3.6 5 7.5 2.5 3.8 4.7 7.2 5.1 7.5.3.3.8 1 1 1.5.2.6 7.5 11.7 16.2 24.9 8.7 13.1 18.8 28.4 22.4 33.9 3.7 5.6 7.1 10.3 7.5 10.5.4.2.8.8.8 1.4 0 .5 1.1 2.4 2.5 4.2 1.4 1.8 2.5 3.7 2.5 4.3 0 .5.9 1.8 2 2.8 1.1 1 2 2.4 2 3.2 0 .7.5 1.3 1 1.3.6 0 1 .5 1 1 0 1.2 3.9 7.1 5.4 8.1 1.4 1 1.4 1-16.9 28.4-7.7 11.6-14.2 21.4-14.4 22-.2.5-2.2 3.4-4.3 6.2-2.1 2.9-3.6 5.3-3.3 5.3.3 0-.4.9-1.5 2s-2 2.6-2 3.4c0 .8-.3 1.6-.8 1.8-.4.1-4.3 5.7-8.7 12.3-4.3 6.6-8.3 12.1-8.7 12.3-.4.2-.8 1-.8 1.7 0 .8-.6 2-1.2 2.7-2.3 2.5-5.8 7.7-5.8 8.7 0 .5-.3 1.1-.7 1.3-1.2.5-42.3 62.6-42.3 63.8 0 .5-.4 1-.8 1-.5 0-1.9 1.8-3.1 4-1.2 2.2-3.8 6.1-5.7 8.5-1.9 2.5-3.1 4.5-2.7 4.5.3 0-.1.8-1 1.7-2.3 2.6-36.7 54.5-36.7 55.4 0 .4-.3.9-.7 1.1-.6.2-40.1 58.5-45.4 66.9-.8 1.4-3.9 0-3.9-1.7 0-.8-.4-1.4-1-1.4-.5 0-1-.6-1-1.3 0-.8-.9-2.2-2-3.2s-2-2.4-2-3.2c0-.7-.6-1.6-1.4-1.9-.8-.3-1.7-1.3-2-2.2-.7-2.1-2.5-4.9-4.8-7.6-1-1.1-2.4-3.2-3-4.8-.7-1.5-1.5-2.8-1.8-2.8-.3 0-1.4-1.6-2.4-3.5-1.1-1.9-2.3-3.5-2.8-3.5-.4 0-.8-.4-.8-.8 0-.5-7-11.3-15.5-24.1S475 760.4 475 759.9s-.4-.9-.8-.9-2.1-2.2-3.7-5c-1.7-2.7-3.3-5-3.7-5-.5 0-.8-.4-.8-.9 0-.6-4.7-8-10.5-16.6-5.8-8.6-10.5-16-10.5-16.5 0-.6-.4-1-.8-1-.5 0-1.5-1.2-2.3-2.8-.8-1.5-1.7-2.9-2-3.2-1.1-1-8.9-13.2-8.9-14 0-.5-.4-1-.8-1.2-1.1-.4-13.2-18.7-16.3-24.6-.7-1.2-1.6-2.2-2.1-2.2-.4 0-.8-.6-.8-1.4 0-.8-.3-1.6-.7-1.8-1.1-.4-7.3-9.6-7.3-10.7 0-.5-.7-1.4-1.5-2.1-.8-.7-2.7-3.4-4.2-6.1-1.4-2.7-3-4.9-3.5-4.9-.4 0-.8-.4-.8-1 0-1.1-6.2-10.3-7.2-10.8-.5-.2-.8-.9-.8-1.6 0-.7-.8-2.1-1.7-3.2-1-1-2.4-3.1-3.2-4.6-.8-1.5-2.1-3.6-3-4.5-.9-1-2.2-3-3-4.6-.8-1.5-1.8-2.7-2.3-2.7-.4 0-.8-.4-.8-1 0-.5-10.6-17-23.6-36.5l-23.6-35.6 7.3-11.2c4.1-6.2 7.7-11.7 8.2-12.2.4-.6 4.8-7.3 9.8-15 14.3-21.8 16.3-24.9 17.2-26 .7-.9 32.7-49.3 46.2-70 3.2-5 6.3-9.2 6.7-9.3.4-.2.8-.7.8-1.1 0-1.2 14.1-22.5 15.1-22.9.5-.2.9-.8.9-1.4 0-.6 1.1-2.6 2.5-4.4 1.4-1.8 2.5-3.7 2.5-4.3 0-.6.4-1.1.8-1.1.5 0 1.5-1.2 2.3-2.8 1.3-2.6 4.9-8.2 5.9-9.2.3-.3 2.3-3.2 4.4-6.5 2.2-3.3 5.2-7.9 6.8-10.2 1.5-2.3 2.8-4.6 2.8-5.1 0-.6.4-1.2.8-1.4 1.1-.4 15.2-21.6 15.2-22.8 0-.4.4-1 .9-1.2.5-.2 4.8-6.4 9.7-13.8 4.8-7.4 9.1-13.7 9.6-13.8.4-.2.8-.7.8-1.2s4.2-7 9.3-14.5c5-7.5 10-15.1 11.1-16.8 1-1.8 2.2-3.4 2.7-3.5.5-.2.9-.9.9-1.6 0-.7.9-2.4 2-3.7 1.2-1.2 3-3.8 4.1-5.6l2-3.3 2.3 2.8c1.2 1.5 3.3 4.4 4.5 6.5z"/></svg>