<svg version="1.0" xmlns="http://www.w3.org/2000/svg" width="1066.667" height="821.333" viewBox="0 0 800 616"><path d="M16.7 1.4c-5.5 2-10.3 6.1-13.4 11.4C.9 16.8.5 18.6.5 25c0 5.1.6 8.5 1.7 10.6 1 1.8 44 67 95.7 145 51.7 78.1 136.4 205.9 188.2 284.1 51.8 78.3 95.4 143.4 96.8 144.7 9 8.6 25.2 8.6 34.2 0 1.4-1.3 45-66.4 96.8-144.7 51.8-78.2 136.5-206 188.2-284.1 51.7-78 94.7-143.2 95.7-145 1.1-2.1 1.7-5.5 1.7-10.6 0-6.4-.4-8.2-2.8-12.2-3.1-5.3-7.9-9.4-13.4-11.4-5.6-2-761-2-766.6 0zm335.4 50.3c-3.2 6-139 209.8-139.7 209.7-.7-.1-136.8-204.6-139.5-209.7-.9-1.6 6-1.7 139.6-1.7s140.5.1 139.6 1.7zm375 0c-3.2 6-139 209.8-139.7 209.7-.7-.1-136.8-204.6-139.5-209.7-.9-1.6 6-1.7 139.6-1.7s140.5.1 139.6 1.7zm-264.6 113c34.1 51.5 69.4 104.8 78.4 118.4l16.3 24.9L479 426c-43.1 64.9-78.6 118-79 118-.4 0-35.9-53.1-79-118l-78.2-118 16.3-24.9c46.5-70.5 140.5-212 140.9-212 .3 0 28.4 42.1 62.5 93.6z"/></svg>