<svg xmlns="http://www.w3.org/2000/svg" width="512" height="512" viewBox="0 0 168.097 168.097"><g xmlns="http://www.w3.org/2000/svg" fill="#fff"><circle cx="84.048" cy="84.044" r="20.699" data-original="#000000"/><path d="M167.055 81.422c-1.516-1.604-37.579-39.41-83.017-39.41-45.433 0-81.491 37.806-83.003 39.41a3.83 3.83 0 000 5.236c1.518 1.604 37.577 39.427 83.003 39.427 45.438 0 81.512-37.823 83.017-39.427a3.81 3.81 0 000-5.236zm-83.007 34.621c-17.639 0-31.989-14.353-31.989-32.006 0-17.639 14.35-32 31.989-32 17.638 0 32.008 14.356 32.008 32-.004 17.643-14.37 32.006-32.008 32.006zM58.682 53.829c-8.645 7.275-14.269 18.044-14.269 30.208 0 12.159 5.624 22.929 14.269 30.217-23.92-7.693-42.704-23.88-49.418-30.217 6.715-6.33 25.503-22.519 49.418-30.208zm50.744 60.413c8.639-7.28 14.27-18.052 14.27-30.205 0-12.153-5.626-22.917-14.277-30.197 23.919 7.693 42.689 23.86 49.407 30.197-6.719 6.331-25.489 22.501-49.4 30.205z" data-original="#000000"/></g></svg>