<svg height="512" width="512" xmlns="http://www.w3.org/2000/svg"><path d="M407 196h-46v-60c0-57.897-47.103-105-105-105S151 78.103 151 136v60h-46C47.103 196 0 243.103 0 301v75c0 57.897 47.103 105 105 105h302c57.897 0 105-47.103 105-105v-75c0-57.897-47.103-105-105-105zM301 451h-90v-90h90zm15-120H196c-8.284 0-15 6.716-15 15v105h-60V226h270v225h-60V346c0-8.284-6.716-15-15-15zM181 136c0-41.355 33.645-75 75-75s75 33.645 75 75v60H181zM30 376v-75c0-36.57 26.315-67.092 61-73.67v222.34c-34.685-6.578-61-37.1-61-73.67zm452 0c0 36.57-26.315 67.092-61 73.67V227.33c34.685 6.578 61 37.1 61 73.67z"/></svg>