<svg xmlns="http://www.w3.org/2000/svg" width="512" height="512"><path d="M452 120h-60.946C383.109 52.522 325.577 0 256 0S128.891 52.522 120.946 120H60c-11.046 0-20 8.954-20 20v352c0 11.046 8.954 20 20 20h392c11.046 0 20-8.954 20-20V140c0-11.046-8.954-20-20-20zM256 40c47.484 0 87.019 34.655 94.659 80H161.341c7.64-45.345 47.175-80 94.659-80zm176 432H80V160h40v60c0 11.046 8.954 20 20 20s20-8.954 20-20v-60h192v60c0 11.046 8.954 20 20 20s20-8.954 20-20v-60h40z" fill="#fdfdfd" data-original="#000000" xmlns="http://www.w3.org/2000/svg"/></svg>