<svg xmlns="http://www.w3.org/2000/svg" viewBox="0 0 56.598 56.598"><path d="M31.02 21.428l-.001.001-.001.001L.092 52.355l4.243 4.242 40.341-40.342-4.242-4.242-9.414 9.415zM4.334 53.77L2.92 52.355 31.725 23.55l1.414 1.414L4.334 53.77zm30.22-30.22l-1.414-1.414 7.294-7.294 1.414 1.414-7.294 7.294zM40.506 9a1 1 0 001-1V1a1 1 0 10-2 0v7a1 1 0 001 1zm0 14a1 1 0 00-1 1v7a1 1 0 102 0v-7a1 1 0 00-1-1zm15-8h-7a1 1 0 100 2h7a1 1 0 100-2zm-30 2h7a1 1 0 100-2h-7a1 1 0 100 2zm21-6a.997.997 0 00.707-.293l4.95-4.95a.999.999 0 10-1.414-1.414l-4.95 4.95A.999.999 0 0046.506 11zm.707 10.293a.999.999 0 10-1.414 1.414l4.95 4.95a.997.997 0 001.414 0 .999.999 0 000-1.414l-4.95-4.95zM33.799 10.707a.997.997 0 001.414 0 .999.999 0 000-1.414l-4.95-4.95a.999.999 0 10-1.414 1.414l4.95 4.95z"/></svg>