<svg xmlns="http://www.w3.org/2000/svg" viewBox="0 0 511.998 511.998"><path d="M458.854 113.935a15.408 15.408 0 0014.689 4.041 15.41 15.41 0 0010.986-10.554l26.004-87.624A15.413 15.413 0 00491.372.637L403.747 26.64a15.407 15.407 0 00-10.554 10.986 15.408 15.408 0 004.041 14.689l19.912 19.912-51.801 51.801c-23.69-21.975-49.208-40.777-76.057-55.992-31.126-17.638-63.35-30.093-95.778-37.019-33.009-7.051-65.459-8.206-96.448-3.431C64.846 32.55 34.853 43.834 7.916 61.125a15.423 15.423 0 00-6.999 11.32 15.406 15.406 0 004.425 12.549L204.86 284.511l-41.276 41.276-49.32 7.582a15.411 15.411 0 00-8.557 4.336L56.85 386.564a15.412 15.412 0 000 21.796l45.958 45.957a15.366 15.366 0 0010.898 4.515 15.36 15.36 0 0010.898-4.515l48.857-48.857a15.414 15.414 0 004.336-8.557l7.583-49.319 41.277-41.277 201.174 201.175a15.411 15.411 0 0023.869-2.572c17.291-26.937 28.576-56.929 33.54-89.146 4.774-30.988 3.62-63.438-3.431-96.449-6.926-32.428-19.381-64.651-37.019-95.778-15.583-27.5-34.918-53.61-57.583-77.782l51.734-51.734 19.913 19.914zM148.095 387.232l-34.39 34.39-24.16-24.159 34.39-34.391 28.549-4.389-4.389 28.549zm78.563-124.52L41.356 77.41c89.608-45.863 207.091-19.487 302.182 68.423l-116.88 116.879zM435.415 471.47l-186.96-186.96 116.942-116.942c89.188 95.392 116.158 213.753 70.018 303.902zm37.479-433.196l-10.551 35.554-25.004-25.003 35.555-10.551z"/></svg>