<svg xmlns="http://www.w3.org/2000/svg" viewBox="0 0 511.998 511.998"><path d="M212.356 171.922c-3.899-3.909-10.237-3.909-14.136 0-3.909 3.899-3.909 10.227 0 14.136 3.899 3.899 10.237 3.899 14.136 0 3.909-3.909 3.909-10.238 0-14.136z"/><path d="M452.896 299.354L289.144 135.59V90.045c0-49.612-40.362-89.974-89.974-89.974s-89.974 40.362-89.974 89.974v114.724l-79.729 79.73-.009.009-.009.01-14.837 14.837c-19.483 19.483-19.484 51.194 0 70.691l127.241 127.231c9.44 9.447 21.995 14.65 35.348 14.65 13.352 0 25.906-5.203 35.345-14.647l14.835-14.834.002-.002.002-.002 166.03-166.023h52.413a9.997 9.997 0 007.068-17.065zM272.17 225.587a9.957 9.957 0 017.064-2.922c2.561 0 5.122.976 7.073 2.926a9.923 9.923 0 012.931 7.068 9.919 9.919 0 01-2.931 7.066l-.005.005c-1.888 1.887-4.397 2.927-7.066 2.927s-5.178-1.04-7.067-2.928a9.933 9.933 0 01-2.927-7.072 9.93 9.93 0 012.928-7.07zm-73-205.521c38.588 0 69.98 31.393 69.98 69.98v25.551l-28.321-28.321a10.001 10.001 0 00-14.138 0l-97.5 97.501v-94.73h-.001c.001-38.588 31.392-69.981 69.98-69.981zm-.764 463.076c-5.664 5.667-13.194 8.789-21.205 8.789-8.012 0-15.542-3.121-21.209-8.791L28.753 355.909c-11.692-11.699-11.693-30.727-.002-42.418l7.776-7.776 169.65 169.658-7.771 7.769zm190.868-186.717a9.995 9.995 0 00-7.068 2.928L220.314 461.235 50.664 291.577l75.595-75.596.004-.004 107.496-107.496 35.39 35.392v60.545a29.805 29.805 0 00-11.118 7.03c-5.664 5.664-8.783 13.197-8.783 21.21 0 8.014 3.119 15.546 8.783 21.21 5.664 5.664 13.194 8.784 21.205 8.784 8.008 0 15.536-3.118 21.2-8.778 5.672-5.665 8.796-13.199 8.796-21.215s-3.124-15.55-8.792-21.211a29.809 29.809 0 00-11.298-7.096v-40.483l132.549 132.556h-32.417z"/><path d="M184.085 200.192c-3.902-3.903-10.233-3.905-14.137 0l-84.835 84.825c-3.905 3.904-3.905 10.233-.001 14.138a9.965 9.965 0 007.069 2.928 9.963 9.963 0 007.068-2.928l84.835-84.825c3.904-3.904 3.904-10.233.001-14.138zm286.402 170.467a10 10 0 00-16.949 0c-6.932 11.076-41.511 67.527-41.511 91.278 0 27.562 22.424 49.985 49.985 49.985 27.562 0 49.985-22.423 49.985-49.985.002-23.751-34.578-80.204-41.51-91.278zm-8.473 121.269c-16.537 0-29.991-13.454-29.991-29.991 0-11.013 15.563-41.86 29.991-66.616 14.428 24.757 29.991 55.604 29.991 66.616 0 16.537-13.454 29.991-29.991 29.991z"/></svg>